<mxfile host="app.diagrams.net" modified="2022-04-17T17:27:35.236Z" agent="5.0 (Windows NT 10.0; Win64; x64) AppleWebKit/537.36 (KHTML, like Gecko) Chrome/85.0.4183.121 Safari/537.36" etag="pi1hGPwZa8CpefmGr0K7" version="17.4.5" type="github">
  <diagram id="QpSm8B5l4Wpi0U74M7_F" name="DER">
    <mxGraphModel dx="716" dy="1555" grid="1" gridSize="10" guides="1" tooltips="1" connect="1" arrows="1" fold="1" page="1" pageScale="1" pageWidth="827" pageHeight="1169" background="none" math="0" shadow="0">
      <root>
        <mxCell id="0" />
        <mxCell id="1" parent="0" />
        <mxCell id="IKc9bVj89uV0Ui4GK-_n-5" style="edgeStyle=none;shape=connector;rounded=0;orthogonalLoop=1;jettySize=auto;html=1;exitX=1;exitY=0.5;exitDx=0;exitDy=0;entryX=0.039;entryY=0.474;entryDx=0;entryDy=0;entryPerimeter=0;labelBackgroundColor=default;fontFamily=Helvetica;fontSize=11;fontColor=default;endArrow=none;strokeColor=default;" edge="1" parent="1" source="chf8NwxJ6LeS7-mmYx3d-1" target="IKc9bVj89uV0Ui4GK-_n-1">
          <mxGeometry relative="1" as="geometry" />
        </mxCell>
        <mxCell id="chf8NwxJ6LeS7-mmYx3d-1" value="Persona" style="whiteSpace=wrap;html=1;align=center;" parent="1" vertex="1">
          <mxGeometry x="40" y="360" width="100" height="40" as="geometry" />
        </mxCell>
        <mxCell id="chf8NwxJ6LeS7-mmYx3d-43" style="edgeStyle=none;shape=connector;rounded=0;orthogonalLoop=1;jettySize=auto;html=1;entryX=0.599;entryY=0.996;entryDx=0;entryDy=0;entryPerimeter=0;labelBackgroundColor=default;fontFamily=Helvetica;fontSize=11;fontColor=default;endArrow=none;strokeColor=default;" parent="1" source="chf8NwxJ6LeS7-mmYx3d-3" target="chf8NwxJ6LeS7-mmYx3d-35" edge="1">
          <mxGeometry relative="1" as="geometry" />
        </mxCell>
        <mxCell id="chf8NwxJ6LeS7-mmYx3d-44" style="edgeStyle=none;shape=connector;rounded=0;orthogonalLoop=1;jettySize=auto;html=1;entryX=0.5;entryY=1;entryDx=0;entryDy=0;labelBackgroundColor=default;fontFamily=Helvetica;fontSize=11;fontColor=default;endArrow=none;strokeColor=default;" parent="1" source="chf8NwxJ6LeS7-mmYx3d-3" target="chf8NwxJ6LeS7-mmYx3d-36" edge="1">
          <mxGeometry relative="1" as="geometry" />
        </mxCell>
        <mxCell id="chf8NwxJ6LeS7-mmYx3d-45" style="edgeStyle=none;shape=connector;rounded=0;orthogonalLoop=1;jettySize=auto;html=1;entryX=0.336;entryY=1.039;entryDx=0;entryDy=0;entryPerimeter=0;labelBackgroundColor=default;fontFamily=Helvetica;fontSize=11;fontColor=default;endArrow=none;strokeColor=default;" parent="1" source="chf8NwxJ6LeS7-mmYx3d-3" target="chf8NwxJ6LeS7-mmYx3d-37" edge="1">
          <mxGeometry relative="1" as="geometry" />
        </mxCell>
        <mxCell id="chf8NwxJ6LeS7-mmYx3d-46" style="edgeStyle=none;shape=connector;rounded=0;orthogonalLoop=1;jettySize=auto;html=1;labelBackgroundColor=default;fontFamily=Helvetica;fontSize=11;fontColor=default;endArrow=none;strokeColor=default;" parent="1" source="chf8NwxJ6LeS7-mmYx3d-3" target="chf8NwxJ6LeS7-mmYx3d-38" edge="1">
          <mxGeometry relative="1" as="geometry" />
        </mxCell>
        <mxCell id="chf8NwxJ6LeS7-mmYx3d-47" style="edgeStyle=none;shape=connector;rounded=0;orthogonalLoop=1;jettySize=auto;html=1;labelBackgroundColor=default;fontFamily=Helvetica;fontSize=11;fontColor=default;endArrow=none;strokeColor=default;" parent="1" source="chf8NwxJ6LeS7-mmYx3d-3" target="chf8NwxJ6LeS7-mmYx3d-39" edge="1">
          <mxGeometry relative="1" as="geometry" />
        </mxCell>
        <mxCell id="chf8NwxJ6LeS7-mmYx3d-3" value="Experiencia_laboral" style="whiteSpace=wrap;html=1;align=center;" parent="1" vertex="1">
          <mxGeometry x="414" y="125" width="140" height="50" as="geometry" />
        </mxCell>
        <mxCell id="chf8NwxJ6LeS7-mmYx3d-49" style="edgeStyle=none;shape=connector;rounded=0;orthogonalLoop=1;jettySize=auto;html=1;labelBackgroundColor=default;fontFamily=Helvetica;fontSize=11;fontColor=default;endArrow=none;strokeColor=default;" parent="1" source="chf8NwxJ6LeS7-mmYx3d-4" target="chf8NwxJ6LeS7-mmYx3d-48" edge="1">
          <mxGeometry relative="1" as="geometry" />
        </mxCell>
        <mxCell id="chf8NwxJ6LeS7-mmYx3d-52" style="edgeStyle=none;shape=connector;rounded=0;orthogonalLoop=1;jettySize=auto;html=1;entryX=0;entryY=0.5;entryDx=0;entryDy=0;labelBackgroundColor=default;fontFamily=Helvetica;fontSize=11;fontColor=default;endArrow=none;strokeColor=default;" parent="1" source="chf8NwxJ6LeS7-mmYx3d-4" target="chf8NwxJ6LeS7-mmYx3d-51" edge="1">
          <mxGeometry relative="1" as="geometry" />
        </mxCell>
        <mxCell id="chf8NwxJ6LeS7-mmYx3d-53" style="edgeStyle=none;shape=connector;rounded=0;orthogonalLoop=1;jettySize=auto;html=1;labelBackgroundColor=default;fontFamily=Helvetica;fontSize=11;fontColor=default;endArrow=none;strokeColor=default;" parent="1" source="chf8NwxJ6LeS7-mmYx3d-4" target="chf8NwxJ6LeS7-mmYx3d-50" edge="1">
          <mxGeometry relative="1" as="geometry" />
        </mxCell>
        <mxCell id="chf8NwxJ6LeS7-mmYx3d-55" style="edgeStyle=none;shape=connector;rounded=0;orthogonalLoop=1;jettySize=auto;html=1;entryX=0;entryY=0.5;entryDx=0;entryDy=0;labelBackgroundColor=default;fontFamily=Helvetica;fontSize=11;fontColor=default;endArrow=none;strokeColor=default;" parent="1" source="chf8NwxJ6LeS7-mmYx3d-4" target="chf8NwxJ6LeS7-mmYx3d-54" edge="1">
          <mxGeometry relative="1" as="geometry" />
        </mxCell>
        <mxCell id="chf8NwxJ6LeS7-mmYx3d-4" value="Educacion" style="whiteSpace=wrap;html=1;align=center;" parent="1" vertex="1">
          <mxGeometry x="414" y="295" width="140" height="50" as="geometry" />
        </mxCell>
        <mxCell id="chf8NwxJ6LeS7-mmYx3d-58" style="edgeStyle=none;shape=connector;rounded=0;orthogonalLoop=1;jettySize=auto;html=1;entryX=0;entryY=0.5;entryDx=0;entryDy=0;labelBackgroundColor=default;fontFamily=Helvetica;fontSize=11;fontColor=default;endArrow=none;strokeColor=default;" parent="1" source="chf8NwxJ6LeS7-mmYx3d-5" target="chf8NwxJ6LeS7-mmYx3d-56" edge="1">
          <mxGeometry relative="1" as="geometry" />
        </mxCell>
        <mxCell id="chf8NwxJ6LeS7-mmYx3d-59" style="edgeStyle=none;shape=connector;rounded=0;orthogonalLoop=1;jettySize=auto;html=1;labelBackgroundColor=default;fontFamily=Helvetica;fontSize=11;fontColor=default;endArrow=none;strokeColor=default;" parent="1" source="chf8NwxJ6LeS7-mmYx3d-5" target="chf8NwxJ6LeS7-mmYx3d-57" edge="1">
          <mxGeometry relative="1" as="geometry" />
        </mxCell>
        <mxCell id="chf8NwxJ6LeS7-mmYx3d-5" value="Skills" style="whiteSpace=wrap;html=1;align=center;" parent="1" vertex="1">
          <mxGeometry x="414" y="485" width="140" height="50" as="geometry" />
        </mxCell>
        <mxCell id="chf8NwxJ6LeS7-mmYx3d-63" style="edgeStyle=none;shape=connector;rounded=0;orthogonalLoop=1;jettySize=auto;html=1;labelBackgroundColor=default;fontFamily=Helvetica;fontSize=11;fontColor=default;endArrow=none;strokeColor=default;" parent="1" source="chf8NwxJ6LeS7-mmYx3d-6" target="chf8NwxJ6LeS7-mmYx3d-60" edge="1">
          <mxGeometry relative="1" as="geometry" />
        </mxCell>
        <mxCell id="chf8NwxJ6LeS7-mmYx3d-64" style="edgeStyle=none;shape=connector;rounded=0;orthogonalLoop=1;jettySize=auto;html=1;labelBackgroundColor=default;fontFamily=Helvetica;fontSize=11;fontColor=default;endArrow=none;strokeColor=default;" parent="1" source="chf8NwxJ6LeS7-mmYx3d-6" target="chf8NwxJ6LeS7-mmYx3d-61" edge="1">
          <mxGeometry relative="1" as="geometry" />
        </mxCell>
        <mxCell id="chf8NwxJ6LeS7-mmYx3d-65" style="edgeStyle=none;shape=connector;rounded=0;orthogonalLoop=1;jettySize=auto;html=1;labelBackgroundColor=default;fontFamily=Helvetica;fontSize=11;fontColor=default;endArrow=none;strokeColor=default;" parent="1" source="chf8NwxJ6LeS7-mmYx3d-6" target="chf8NwxJ6LeS7-mmYx3d-62" edge="1">
          <mxGeometry relative="1" as="geometry" />
        </mxCell>
        <mxCell id="chf8NwxJ6LeS7-mmYx3d-6" value="Proyectos" style="whiteSpace=wrap;html=1;align=center;" parent="1" vertex="1">
          <mxGeometry x="414" y="635" width="140" height="50" as="geometry" />
        </mxCell>
        <mxCell id="chf8NwxJ6LeS7-mmYx3d-7" value="posee" style="shape=rhombus;perimeter=rhombusPerimeter;whiteSpace=wrap;html=1;align=center;" parent="1" vertex="1">
          <mxGeometry x="220" y="120" width="120" height="60" as="geometry" />
        </mxCell>
        <mxCell id="chf8NwxJ6LeS7-mmYx3d-9" value="" style="endArrow=none;html=1;rounded=0;exitX=1;exitY=0.5;exitDx=0;exitDy=0;entryX=0;entryY=0.5;entryDx=0;entryDy=0;" parent="1" source="chf8NwxJ6LeS7-mmYx3d-1" target="chf8NwxJ6LeS7-mmYx3d-7" edge="1">
          <mxGeometry relative="1" as="geometry">
            <mxPoint x="160" y="190" as="sourcePoint" />
            <mxPoint x="320" y="190" as="targetPoint" />
          </mxGeometry>
        </mxCell>
        <mxCell id="chf8NwxJ6LeS7-mmYx3d-15" value="" style="endArrow=none;html=1;rounded=0;exitX=1;exitY=0.5;exitDx=0;exitDy=0;entryX=0;entryY=0.5;entryDx=0;entryDy=0;" parent="1" source="chf8NwxJ6LeS7-mmYx3d-7" target="chf8NwxJ6LeS7-mmYx3d-3" edge="1">
          <mxGeometry relative="1" as="geometry">
            <mxPoint x="320" y="200" as="sourcePoint" />
            <mxPoint x="480" y="200" as="targetPoint" />
          </mxGeometry>
        </mxCell>
        <mxCell id="chf8NwxJ6LeS7-mmYx3d-18" value="posee" style="shape=rhombus;perimeter=rhombusPerimeter;whiteSpace=wrap;html=1;align=center;" parent="1" vertex="1">
          <mxGeometry x="220" y="290" width="120" height="60" as="geometry" />
        </mxCell>
        <mxCell id="chf8NwxJ6LeS7-mmYx3d-20" value="" style="endArrow=none;html=1;rounded=0;exitX=1;exitY=0.5;exitDx=0;exitDy=0;entryX=0;entryY=0.5;entryDx=0;entryDy=0;" parent="1" source="chf8NwxJ6LeS7-mmYx3d-1" target="chf8NwxJ6LeS7-mmYx3d-18" edge="1">
          <mxGeometry relative="1" as="geometry">
            <mxPoint x="310" y="240" as="sourcePoint" />
            <mxPoint x="470" y="240" as="targetPoint" />
          </mxGeometry>
        </mxCell>
        <mxCell id="chf8NwxJ6LeS7-mmYx3d-22" value="" style="endArrow=none;html=1;rounded=0;exitX=1;exitY=0.5;exitDx=0;exitDy=0;entryX=0;entryY=0.5;entryDx=0;entryDy=0;" parent="1" source="chf8NwxJ6LeS7-mmYx3d-18" target="chf8NwxJ6LeS7-mmYx3d-4" edge="1">
          <mxGeometry relative="1" as="geometry">
            <mxPoint x="350" y="320" as="sourcePoint" />
            <mxPoint x="400" y="330" as="targetPoint" />
          </mxGeometry>
        </mxCell>
        <mxCell id="chf8NwxJ6LeS7-mmYx3d-23" value="posee" style="shape=rhombus;perimeter=rhombusPerimeter;whiteSpace=wrap;html=1;align=center;" parent="1" vertex="1">
          <mxGeometry x="220" y="480" width="120" height="60" as="geometry" />
        </mxCell>
        <mxCell id="chf8NwxJ6LeS7-mmYx3d-24" value="trabaja en" style="shape=rhombus;perimeter=rhombusPerimeter;whiteSpace=wrap;html=1;align=center;" parent="1" vertex="1">
          <mxGeometry x="224" y="630" width="120" height="60" as="geometry" />
        </mxCell>
        <mxCell id="chf8NwxJ6LeS7-mmYx3d-26" value="" style="endArrow=none;html=1;rounded=0;entryX=0;entryY=0.5;entryDx=0;entryDy=0;exitX=1;exitY=0.5;exitDx=0;exitDy=0;" parent="1" source="chf8NwxJ6LeS7-mmYx3d-1" target="chf8NwxJ6LeS7-mmYx3d-23" edge="1">
          <mxGeometry relative="1" as="geometry">
            <mxPoint x="210" y="290" as="sourcePoint" />
            <mxPoint x="430" y="310" as="targetPoint" />
          </mxGeometry>
        </mxCell>
        <mxCell id="chf8NwxJ6LeS7-mmYx3d-27" value="" style="endArrow=none;html=1;rounded=0;exitX=1;exitY=0.5;exitDx=0;exitDy=0;entryX=0;entryY=0.5;entryDx=0;entryDy=0;" parent="1" source="chf8NwxJ6LeS7-mmYx3d-1" target="chf8NwxJ6LeS7-mmYx3d-24" edge="1">
          <mxGeometry relative="1" as="geometry">
            <mxPoint x="270" y="310" as="sourcePoint" />
            <mxPoint x="430" y="310" as="targetPoint" />
          </mxGeometry>
        </mxCell>
        <mxCell id="chf8NwxJ6LeS7-mmYx3d-31" value="" style="endArrow=none;html=1;rounded=0;exitX=1;exitY=0.5;exitDx=0;exitDy=0;" parent="1" source="chf8NwxJ6LeS7-mmYx3d-24" target="chf8NwxJ6LeS7-mmYx3d-6" edge="1">
          <mxGeometry relative="1" as="geometry">
            <mxPoint x="270" y="550" as="sourcePoint" />
            <mxPoint x="430" y="550" as="targetPoint" />
          </mxGeometry>
        </mxCell>
        <mxCell id="chf8NwxJ6LeS7-mmYx3d-32" value="" style="endArrow=none;html=1;rounded=0;exitX=1;exitY=0.5;exitDx=0;exitDy=0;entryX=0;entryY=0.5;entryDx=0;entryDy=0;" parent="1" source="chf8NwxJ6LeS7-mmYx3d-23" target="chf8NwxJ6LeS7-mmYx3d-5" edge="1">
          <mxGeometry relative="1" as="geometry">
            <mxPoint x="270" y="480" as="sourcePoint" />
            <mxPoint x="430" y="480" as="targetPoint" />
          </mxGeometry>
        </mxCell>
        <mxCell id="chf8NwxJ6LeS7-mmYx3d-35" value="&lt;span style=&quot;border-bottom: 1px dotted&quot;&gt;cargo&lt;/span&gt;" style="ellipse;whiteSpace=wrap;html=1;align=center;" parent="1" vertex="1">
          <mxGeometry x="480" y="40" width="100" height="40" as="geometry" />
        </mxCell>
        <mxCell id="chf8NwxJ6LeS7-mmYx3d-36" value="&lt;span style=&quot;border-bottom: 1px dotted&quot;&gt;empresa&lt;/span&gt;" style="ellipse;whiteSpace=wrap;html=1;align=center;" parent="1" vertex="1">
          <mxGeometry x="590" y="45" width="100" height="40" as="geometry" />
        </mxCell>
        <mxCell id="chf8NwxJ6LeS7-mmYx3d-37" value="&lt;span style=&quot;border-bottom: 1px dotted&quot;&gt;fecha-inicio&lt;/span&gt;" style="ellipse;whiteSpace=wrap;html=1;align=center;" parent="1" vertex="1">
          <mxGeometry x="630" y="85" width="100" height="40" as="geometry" />
        </mxCell>
        <mxCell id="chf8NwxJ6LeS7-mmYx3d-38" value="&lt;span style=&quot;border-bottom: 1px dotted&quot;&gt;fecha-finalizacion&lt;/span&gt;" style="ellipse;whiteSpace=wrap;html=1;align=center;" parent="1" vertex="1">
          <mxGeometry x="640" y="135" width="100" height="40" as="geometry" />
        </mxCell>
        <mxCell id="chf8NwxJ6LeS7-mmYx3d-39" value="&lt;span style=&quot;border-bottom: 1px dotted&quot;&gt;descripcion&lt;/span&gt;" style="ellipse;whiteSpace=wrap;html=1;align=center;" parent="1" vertex="1">
          <mxGeometry x="570" y="175" width="100" height="40" as="geometry" />
        </mxCell>
        <mxCell id="chf8NwxJ6LeS7-mmYx3d-48" value="&lt;span style=&quot;border-bottom: 1px dotted&quot;&gt;establecimiento&lt;/span&gt;" style="ellipse;whiteSpace=wrap;html=1;align=center;" parent="1" vertex="1">
          <mxGeometry x="510" y="230" width="100" height="40" as="geometry" />
        </mxCell>
        <mxCell id="chf8NwxJ6LeS7-mmYx3d-50" value="titulo" style="ellipse;whiteSpace=wrap;html=1;align=center;" parent="1" vertex="1">
          <mxGeometry x="590" y="260" width="100" height="40" as="geometry" />
        </mxCell>
        <mxCell id="chf8NwxJ6LeS7-mmYx3d-51" value="&lt;span style=&quot;border-bottom: 1px dotted&quot;&gt;fechaInicio&lt;/span&gt;" style="ellipse;whiteSpace=wrap;html=1;align=center;" parent="1" vertex="1">
          <mxGeometry x="590" y="310" width="100" height="40" as="geometry" />
        </mxCell>
        <mxCell id="chf8NwxJ6LeS7-mmYx3d-54" value="fecha-finalizacion" style="ellipse;whiteSpace=wrap;html=1;align=center;" parent="1" vertex="1">
          <mxGeometry x="590" y="360" width="100" height="40" as="geometry" />
        </mxCell>
        <mxCell id="chf8NwxJ6LeS7-mmYx3d-56" value="&lt;span style=&quot;border-bottom: 1px dotted&quot;&gt;nombre&lt;/span&gt;" style="ellipse;whiteSpace=wrap;html=1;align=center;" parent="1" vertex="1">
          <mxGeometry x="580" y="445" width="100" height="40" as="geometry" />
        </mxCell>
        <mxCell id="chf8NwxJ6LeS7-mmYx3d-57" value="&lt;span style=&quot;border-bottom: 1px dotted&quot;&gt;porcentaje&lt;/span&gt;" style="ellipse;whiteSpace=wrap;html=1;align=center;" parent="1" vertex="1">
          <mxGeometry x="580" y="510" width="100" height="40" as="geometry" />
        </mxCell>
        <mxCell id="chf8NwxJ6LeS7-mmYx3d-60" value="&lt;span style=&quot;border-bottom: 1px dotted&quot;&gt;nombre&lt;/span&gt;" style="ellipse;whiteSpace=wrap;html=1;align=center;" parent="1" vertex="1">
          <mxGeometry x="540" y="580" width="100" height="40" as="geometry" />
        </mxCell>
        <mxCell id="chf8NwxJ6LeS7-mmYx3d-61" value="&lt;span style=&quot;border-bottom: 1px dotted&quot;&gt;fecha&lt;/span&gt;" style="ellipse;whiteSpace=wrap;html=1;align=center;" parent="1" vertex="1">
          <mxGeometry x="580" y="630" width="100" height="40" as="geometry" />
        </mxCell>
        <mxCell id="chf8NwxJ6LeS7-mmYx3d-62" value="&lt;span style=&quot;border-bottom: 1px dotted&quot;&gt;descripcion&lt;/span&gt;" style="ellipse;whiteSpace=wrap;html=1;align=center;" parent="1" vertex="1">
          <mxGeometry x="560" y="690" width="100" height="40" as="geometry" />
        </mxCell>
        <mxCell id="IKc9bVj89uV0Ui4GK-_n-1" value="posee" style="shape=rhombus;perimeter=rhombusPerimeter;whiteSpace=wrap;html=1;align=center;" vertex="1" parent="1">
          <mxGeometry x="220" y="40" width="120" height="60" as="geometry" />
        </mxCell>
        <mxCell id="IKc9bVj89uV0Ui4GK-_n-7" value="DISENIO LOGICO" style="rounded=0;whiteSpace=wrap;html=1;fontFamily=Helvetica;fontSize=17;fontStyle=1;fillColor=#fff2cc;strokeColor=#d6b656;" vertex="1" parent="1">
          <mxGeometry x="434" y="-90" width="120" height="60" as="geometry" />
        </mxCell>
        <mxCell id="IKc9bVj89uV0Ui4GK-_n-8" value="DISENIO CONCEPTUAL" style="rounded=0;whiteSpace=wrap;html=1;fontFamily=Helvetica;fontSize=17;fontStyle=1;fillColor=#fff2cc;strokeColor=#d6b656;" vertex="1" parent="1">
          <mxGeometry x="1100" y="-110" width="120" height="60" as="geometry" />
        </mxCell>
        <mxCell id="IKc9bVj89uV0Ui4GK-_n-55" value="Experiencia laboral" style="shape=table;startSize=30;container=1;collapsible=1;childLayout=tableLayout;fixedRows=1;rowLines=0;fontStyle=1;align=center;resizeLast=1;fontFamily=Helvetica;fontSize=12;fontColor=default;" vertex="1" parent="1">
          <mxGeometry x="1170" y="20" width="180" height="160" as="geometry" />
        </mxCell>
        <mxCell id="IKc9bVj89uV0Ui4GK-_n-56" value="" style="shape=tableRow;horizontal=0;startSize=0;swimlaneHead=0;swimlaneBody=0;fillColor=none;collapsible=0;dropTarget=0;points=[[0,0.5],[1,0.5]];portConstraint=eastwest;top=0;left=0;right=0;bottom=0;fontFamily=Helvetica;fontSize=12;fontColor=default;" vertex="1" parent="IKc9bVj89uV0Ui4GK-_n-55">
          <mxGeometry y="30" width="180" height="30" as="geometry" />
        </mxCell>
        <mxCell id="IKc9bVj89uV0Ui4GK-_n-57" value="PK,FK1" style="shape=partialRectangle;connectable=0;fillColor=none;top=0;left=0;bottom=0;right=0;fontStyle=1;overflow=hidden;fontFamily=Helvetica;fontSize=12;fontColor=default;" vertex="1" parent="IKc9bVj89uV0Ui4GK-_n-56">
          <mxGeometry width="60" height="30" as="geometry">
            <mxRectangle width="60" height="30" as="alternateBounds" />
          </mxGeometry>
        </mxCell>
        <mxCell id="IKc9bVj89uV0Ui4GK-_n-58" value="Row 1" style="shape=partialRectangle;connectable=0;fillColor=none;top=0;left=0;bottom=0;right=0;align=left;spacingLeft=6;fontStyle=5;overflow=hidden;fontFamily=Helvetica;fontSize=12;fontColor=default;" vertex="1" parent="IKc9bVj89uV0Ui4GK-_n-56">
          <mxGeometry x="60" width="120" height="30" as="geometry">
            <mxRectangle width="120" height="30" as="alternateBounds" />
          </mxGeometry>
        </mxCell>
        <mxCell id="IKc9bVj89uV0Ui4GK-_n-59" value="" style="shape=tableRow;horizontal=0;startSize=0;swimlaneHead=0;swimlaneBody=0;fillColor=none;collapsible=0;dropTarget=0;points=[[0,0.5],[1,0.5]];portConstraint=eastwest;top=0;left=0;right=0;bottom=1;fontFamily=Helvetica;fontSize=12;fontColor=default;" vertex="1" parent="IKc9bVj89uV0Ui4GK-_n-55">
          <mxGeometry y="60" width="180" height="30" as="geometry" />
        </mxCell>
        <mxCell id="IKc9bVj89uV0Ui4GK-_n-60" value="FK" style="shape=partialRectangle;connectable=0;fillColor=none;top=0;left=0;bottom=0;right=0;fontStyle=1;overflow=hidden;fontFamily=Helvetica;fontSize=12;fontColor=default;" vertex="1" parent="IKc9bVj89uV0Ui4GK-_n-59">
          <mxGeometry width="60" height="30" as="geometry">
            <mxRectangle width="60" height="30" as="alternateBounds" />
          </mxGeometry>
        </mxCell>
        <mxCell id="IKc9bVj89uV0Ui4GK-_n-61" value="idPersona: int" style="shape=partialRectangle;connectable=0;fillColor=none;top=0;left=0;bottom=0;right=0;align=left;spacingLeft=6;fontStyle=5;overflow=hidden;fontFamily=Helvetica;fontSize=12;fontColor=default;" vertex="1" parent="IKc9bVj89uV0Ui4GK-_n-59">
          <mxGeometry x="60" width="120" height="30" as="geometry">
            <mxRectangle width="120" height="30" as="alternateBounds" />
          </mxGeometry>
        </mxCell>
        <mxCell id="IKc9bVj89uV0Ui4GK-_n-62" value="" style="shape=tableRow;horizontal=0;startSize=0;swimlaneHead=0;swimlaneBody=0;fillColor=none;collapsible=0;dropTarget=0;points=[[0,0.5],[1,0.5]];portConstraint=eastwest;top=0;left=0;right=0;bottom=0;fontFamily=Helvetica;fontSize=12;fontColor=default;" vertex="1" parent="IKc9bVj89uV0Ui4GK-_n-55">
          <mxGeometry y="90" width="180" height="30" as="geometry" />
        </mxCell>
        <mxCell id="IKc9bVj89uV0Ui4GK-_n-63" value="" style="shape=partialRectangle;connectable=0;fillColor=none;top=0;left=0;bottom=0;right=0;editable=1;overflow=hidden;fontFamily=Helvetica;fontSize=12;fontColor=default;" vertex="1" parent="IKc9bVj89uV0Ui4GK-_n-62">
          <mxGeometry width="60" height="30" as="geometry">
            <mxRectangle width="60" height="30" as="alternateBounds" />
          </mxGeometry>
        </mxCell>
        <mxCell id="IKc9bVj89uV0Ui4GK-_n-64" value="+" style="shape=partialRectangle;connectable=0;fillColor=none;top=0;left=0;bottom=0;right=0;align=left;spacingLeft=6;overflow=hidden;fontFamily=Helvetica;fontSize=12;fontColor=default;" vertex="1" parent="IKc9bVj89uV0Ui4GK-_n-62">
          <mxGeometry x="60" width="120" height="30" as="geometry">
            <mxRectangle width="120" height="30" as="alternateBounds" />
          </mxGeometry>
        </mxCell>
        <mxCell id="IKc9bVj89uV0Ui4GK-_n-65" value="" style="shape=tableRow;horizontal=0;startSize=0;swimlaneHead=0;swimlaneBody=0;fillColor=none;collapsible=0;dropTarget=0;points=[[0,0.5],[1,0.5]];portConstraint=eastwest;top=0;left=0;right=0;bottom=0;fontFamily=Helvetica;fontSize=12;fontColor=default;" vertex="1" parent="IKc9bVj89uV0Ui4GK-_n-55">
          <mxGeometry y="120" width="180" height="30" as="geometry" />
        </mxCell>
        <mxCell id="IKc9bVj89uV0Ui4GK-_n-66" value="" style="shape=partialRectangle;connectable=0;fillColor=none;top=0;left=0;bottom=0;right=0;editable=1;overflow=hidden;fontFamily=Helvetica;fontSize=12;fontColor=default;" vertex="1" parent="IKc9bVj89uV0Ui4GK-_n-65">
          <mxGeometry width="60" height="30" as="geometry">
            <mxRectangle width="60" height="30" as="alternateBounds" />
          </mxGeometry>
        </mxCell>
        <mxCell id="IKc9bVj89uV0Ui4GK-_n-67" value="Row 4" style="shape=partialRectangle;connectable=0;fillColor=none;top=0;left=0;bottom=0;right=0;align=left;spacingLeft=6;overflow=hidden;fontFamily=Helvetica;fontSize=12;fontColor=default;" vertex="1" parent="IKc9bVj89uV0Ui4GK-_n-65">
          <mxGeometry x="60" width="120" height="30" as="geometry">
            <mxRectangle width="120" height="30" as="alternateBounds" />
          </mxGeometry>
        </mxCell>
        <mxCell id="IKc9bVj89uV0Ui4GK-_n-143" value="Table" style="shape=table;startSize=30;container=1;collapsible=1;childLayout=tableLayout;fixedRows=1;rowLines=0;fontStyle=1;align=center;resizeLast=1;rounded=1;shadow=0;labelBackgroundColor=none;labelBorderColor=none;fontFamily=Helvetica;fontSize=12;fontColor=default;strokeColor=default;strokeWidth=1;fillColor=none;" vertex="1" parent="1">
          <mxGeometry x="1070" y="230" width="180" height="160" as="geometry" />
        </mxCell>
        <mxCell id="IKc9bVj89uV0Ui4GK-_n-144" value="" style="shape=tableRow;horizontal=0;startSize=0;swimlaneHead=0;swimlaneBody=0;fillColor=none;collapsible=0;dropTarget=0;points=[[0,0.5],[1,0.5]];portConstraint=eastwest;top=0;left=0;right=0;bottom=1;rounded=1;shadow=0;labelBackgroundColor=none;labelBorderColor=none;fontFamily=Helvetica;fontSize=12;fontColor=default;strokeColor=default;strokeWidth=1;" vertex="1" parent="IKc9bVj89uV0Ui4GK-_n-143">
          <mxGeometry y="30" width="180" height="30" as="geometry" />
        </mxCell>
        <mxCell id="IKc9bVj89uV0Ui4GK-_n-145" value="PK" style="shape=partialRectangle;connectable=0;fillColor=none;top=0;left=0;bottom=0;right=0;fontStyle=1;overflow=hidden;rounded=1;shadow=0;labelBackgroundColor=none;labelBorderColor=none;fontFamily=Helvetica;fontSize=12;fontColor=default;strokeColor=default;strokeWidth=1;" vertex="1" parent="IKc9bVj89uV0Ui4GK-_n-144">
          <mxGeometry width="30" height="30" as="geometry">
            <mxRectangle width="30" height="30" as="alternateBounds" />
          </mxGeometry>
        </mxCell>
        <mxCell id="IKc9bVj89uV0Ui4GK-_n-146" value="UniqueID" style="shape=partialRectangle;connectable=0;fillColor=none;top=0;left=0;bottom=0;right=0;align=left;spacingLeft=6;fontStyle=5;overflow=hidden;rounded=1;shadow=0;labelBackgroundColor=none;labelBorderColor=none;fontFamily=Helvetica;fontSize=12;fontColor=default;strokeColor=default;strokeWidth=1;" vertex="1" parent="IKc9bVj89uV0Ui4GK-_n-144">
          <mxGeometry x="30" width="150" height="30" as="geometry">
            <mxRectangle width="150" height="30" as="alternateBounds" />
          </mxGeometry>
        </mxCell>
        <mxCell id="IKc9bVj89uV0Ui4GK-_n-147" value="" style="shape=tableRow;horizontal=0;startSize=0;swimlaneHead=0;swimlaneBody=0;fillColor=none;collapsible=0;dropTarget=0;points=[[0,0.5],[1,0.5]];portConstraint=eastwest;top=0;left=0;right=0;bottom=0;rounded=1;shadow=0;labelBackgroundColor=none;labelBorderColor=none;fontFamily=Helvetica;fontSize=12;fontColor=default;strokeColor=default;strokeWidth=1;" vertex="1" parent="IKc9bVj89uV0Ui4GK-_n-143">
          <mxGeometry y="60" width="180" height="30" as="geometry" />
        </mxCell>
        <mxCell id="IKc9bVj89uV0Ui4GK-_n-148" value="" style="shape=partialRectangle;connectable=0;fillColor=none;top=0;left=0;bottom=0;right=0;editable=1;overflow=hidden;rounded=1;shadow=0;labelBackgroundColor=none;labelBorderColor=none;fontFamily=Helvetica;fontSize=12;fontColor=default;strokeColor=default;strokeWidth=1;" vertex="1" parent="IKc9bVj89uV0Ui4GK-_n-147">
          <mxGeometry width="30" height="30" as="geometry">
            <mxRectangle width="30" height="30" as="alternateBounds" />
          </mxGeometry>
        </mxCell>
        <mxCell id="IKc9bVj89uV0Ui4GK-_n-149" value="Row 1" style="shape=partialRectangle;connectable=0;fillColor=none;top=0;left=0;bottom=0;right=0;align=left;spacingLeft=6;overflow=hidden;rounded=1;shadow=0;labelBackgroundColor=none;labelBorderColor=none;fontFamily=Helvetica;fontSize=12;fontColor=default;strokeColor=default;strokeWidth=1;" vertex="1" parent="IKc9bVj89uV0Ui4GK-_n-147">
          <mxGeometry x="30" width="150" height="30" as="geometry">
            <mxRectangle width="150" height="30" as="alternateBounds" />
          </mxGeometry>
        </mxCell>
        <mxCell id="IKc9bVj89uV0Ui4GK-_n-150" value="" style="shape=tableRow;horizontal=0;startSize=0;swimlaneHead=0;swimlaneBody=0;fillColor=none;collapsible=0;dropTarget=0;points=[[0,0.5],[1,0.5]];portConstraint=eastwest;top=0;left=0;right=0;bottom=0;rounded=1;shadow=0;labelBackgroundColor=none;labelBorderColor=none;fontFamily=Helvetica;fontSize=12;fontColor=default;strokeColor=default;strokeWidth=1;" vertex="1" parent="IKc9bVj89uV0Ui4GK-_n-143">
          <mxGeometry y="90" width="180" height="30" as="geometry" />
        </mxCell>
        <mxCell id="IKc9bVj89uV0Ui4GK-_n-151" value="" style="shape=partialRectangle;connectable=0;fillColor=none;top=0;left=0;bottom=0;right=0;editable=1;overflow=hidden;rounded=1;shadow=0;labelBackgroundColor=none;labelBorderColor=none;fontFamily=Helvetica;fontSize=12;fontColor=default;strokeColor=default;strokeWidth=1;" vertex="1" parent="IKc9bVj89uV0Ui4GK-_n-150">
          <mxGeometry width="30" height="30" as="geometry">
            <mxRectangle width="30" height="30" as="alternateBounds" />
          </mxGeometry>
        </mxCell>
        <mxCell id="IKc9bVj89uV0Ui4GK-_n-152" value="Row 2" style="shape=partialRectangle;connectable=0;fillColor=none;top=0;left=0;bottom=0;right=0;align=left;spacingLeft=6;overflow=hidden;rounded=1;shadow=0;labelBackgroundColor=none;labelBorderColor=none;fontFamily=Helvetica;fontSize=12;fontColor=default;strokeColor=default;strokeWidth=1;" vertex="1" parent="IKc9bVj89uV0Ui4GK-_n-150">
          <mxGeometry x="30" width="150" height="30" as="geometry">
            <mxRectangle width="150" height="30" as="alternateBounds" />
          </mxGeometry>
        </mxCell>
        <mxCell id="IKc9bVj89uV0Ui4GK-_n-153" value="" style="shape=tableRow;horizontal=0;startSize=0;swimlaneHead=0;swimlaneBody=0;fillColor=none;collapsible=0;dropTarget=0;points=[[0,0.5],[1,0.5]];portConstraint=eastwest;top=0;left=0;right=0;bottom=0;rounded=1;shadow=0;labelBackgroundColor=none;labelBorderColor=none;fontFamily=Helvetica;fontSize=12;fontColor=default;strokeColor=default;strokeWidth=1;" vertex="1" parent="IKc9bVj89uV0Ui4GK-_n-143">
          <mxGeometry y="120" width="180" height="30" as="geometry" />
        </mxCell>
        <mxCell id="IKc9bVj89uV0Ui4GK-_n-154" value="" style="shape=partialRectangle;connectable=0;fillColor=none;top=0;left=0;bottom=0;right=0;editable=1;overflow=hidden;rounded=1;shadow=0;labelBackgroundColor=none;labelBorderColor=none;fontFamily=Helvetica;fontSize=12;fontColor=default;strokeColor=default;strokeWidth=1;" vertex="1" parent="IKc9bVj89uV0Ui4GK-_n-153">
          <mxGeometry width="30" height="30" as="geometry">
            <mxRectangle width="30" height="30" as="alternateBounds" />
          </mxGeometry>
        </mxCell>
        <mxCell id="IKc9bVj89uV0Ui4GK-_n-155" value="Row 3" style="shape=partialRectangle;connectable=0;fillColor=none;top=0;left=0;bottom=0;right=0;align=left;spacingLeft=6;overflow=hidden;rounded=1;shadow=0;labelBackgroundColor=none;labelBorderColor=none;fontFamily=Helvetica;fontSize=12;fontColor=default;strokeColor=default;strokeWidth=1;" vertex="1" parent="IKc9bVj89uV0Ui4GK-_n-153">
          <mxGeometry x="30" width="150" height="30" as="geometry">
            <mxRectangle width="150" height="30" as="alternateBounds" />
          </mxGeometry>
        </mxCell>
        <mxCell id="IKc9bVj89uV0Ui4GK-_n-179" value="Persona" style="swimlane;fontStyle=0;childLayout=stackLayout;horizontal=1;startSize=26;horizontalStack=0;resizeParent=1;resizeParentMax=0;resizeLast=0;collapsible=1;marginBottom=0;align=center;fontSize=14;rounded=0;shadow=0;labelBackgroundColor=none;labelBorderColor=none;fontFamily=Helvetica;fontColor=default;strokeColor=default;strokeWidth=1;fillColor=none;html=1;" vertex="1" parent="1">
          <mxGeometry x="820" y="290" width="160" height="232" as="geometry" />
        </mxCell>
        <mxCell id="IKc9bVj89uV0Ui4GK-_n-180" value="+id_Persona: varchar" style="text;strokeColor=none;fillColor=none;spacingLeft=4;spacingRight=4;overflow=hidden;rotatable=0;points=[[0,0.5],[1,0.5]];portConstraint=eastwest;fontSize=12;rounded=0;shadow=0;labelBackgroundColor=none;labelBorderColor=none;fontFamily=Helvetica;fontColor=default;html=1;fontStyle=1" vertex="1" parent="IKc9bVj89uV0Ui4GK-_n-179">
          <mxGeometry y="26" width="160" height="30" as="geometry" />
        </mxCell>
        <mxCell id="IKc9bVj89uV0Ui4GK-_n-181" value="+Nombre: varchar" style="text;strokeColor=none;fillColor=none;spacingLeft=4;spacingRight=4;overflow=hidden;rotatable=0;points=[[0,0.5],[1,0.5]];portConstraint=eastwest;fontSize=12;rounded=0;shadow=0;labelBackgroundColor=none;labelBorderColor=none;fontFamily=Helvetica;fontColor=default;html=1;" vertex="1" parent="IKc9bVj89uV0Ui4GK-_n-179">
          <mxGeometry y="56" width="160" height="30" as="geometry" />
        </mxCell>
        <mxCell id="IKc9bVj89uV0Ui4GK-_n-182" value="+Apellido: varchar" style="text;strokeColor=none;fillColor=none;spacingLeft=4;spacingRight=4;overflow=hidden;rotatable=0;points=[[0,0.5],[1,0.5]];portConstraint=eastwest;fontSize=12;rounded=0;shadow=0;labelBackgroundColor=none;labelBorderColor=none;fontFamily=Helvetica;fontColor=default;html=1;" vertex="1" parent="IKc9bVj89uV0Ui4GK-_n-179">
          <mxGeometry y="86" width="160" height="30" as="geometry" />
        </mxCell>
        <mxCell id="IKc9bVj89uV0Ui4GK-_n-183" value="List" style="swimlane;fontStyle=0;childLayout=stackLayout;horizontal=1;startSize=26;horizontalStack=0;resizeParent=1;resizeParentMax=0;resizeLast=0;collapsible=1;marginBottom=0;align=center;fontSize=14;rounded=0;shadow=0;labelBackgroundColor=none;labelBorderColor=none;fontFamily=Helvetica;fontColor=default;strokeColor=default;strokeWidth=1;fillColor=none;html=1;" vertex="1" parent="IKc9bVj89uV0Ui4GK-_n-179">
          <mxGeometry y="116" width="160" height="116" as="geometry">
            <mxRectangle y="116" width="160" height="26" as="alternateBounds" />
          </mxGeometry>
        </mxCell>
        <mxCell id="IKc9bVj89uV0Ui4GK-_n-184" value="Item 1" style="text;strokeColor=none;fillColor=none;spacingLeft=4;spacingRight=4;overflow=hidden;rotatable=0;points=[[0,0.5],[1,0.5]];portConstraint=eastwest;fontSize=12;rounded=0;shadow=0;labelBackgroundColor=none;labelBorderColor=none;fontFamily=Helvetica;fontColor=default;html=1;" vertex="1" parent="IKc9bVj89uV0Ui4GK-_n-183">
          <mxGeometry y="26" width="160" height="30" as="geometry" />
        </mxCell>
        <mxCell id="IKc9bVj89uV0Ui4GK-_n-185" value="Item 2" style="text;strokeColor=none;fillColor=none;spacingLeft=4;spacingRight=4;overflow=hidden;rotatable=0;points=[[0,0.5],[1,0.5]];portConstraint=eastwest;fontSize=12;rounded=0;shadow=0;labelBackgroundColor=none;labelBorderColor=none;fontFamily=Helvetica;fontColor=default;html=1;" vertex="1" parent="IKc9bVj89uV0Ui4GK-_n-183">
          <mxGeometry y="56" width="160" height="30" as="geometry" />
        </mxCell>
        <mxCell id="IKc9bVj89uV0Ui4GK-_n-186" value="Item 3" style="text;strokeColor=none;fillColor=none;spacingLeft=4;spacingRight=4;overflow=hidden;rotatable=0;points=[[0,0.5],[1,0.5]];portConstraint=eastwest;fontSize=12;rounded=0;shadow=0;labelBackgroundColor=none;labelBorderColor=none;fontFamily=Helvetica;fontColor=default;html=1;" vertex="1" parent="IKc9bVj89uV0Ui4GK-_n-183">
          <mxGeometry y="86" width="160" height="30" as="geometry" />
        </mxCell>
      </root>
    </mxGraphModel>
  </diagram>
</mxfile>
